<svg width="18" height="15" viewBox="0 0 18 15" fill="none" xmlns="http://www.w3.org/2000/svg">
<path d="M8.99999 3.49976C8.08602 3.49976 7.19255 3.71638 6.43263 4.12222C5.67269 4.52805 5.08038 5.1049 4.73061 5.77977C4.38084 6.45468 4.28933 7.19733 4.46764 7.91376C4.64594 8.6302 5.08607 9.28835 5.73235 9.80489C6.37863 10.3213 7.20202 10.6731 8.09842 10.8156C8.99492 10.9581 9.924 10.885 10.7684 10.6055C11.6129 10.3259 12.3346 9.85255 12.8423 9.2452C13.3502 8.63777 13.6212 7.92367 13.6212 7.19318C13.6226 6.70781 13.5042 6.22703 13.2724 5.77842C13.0407 5.32973 12.7004 4.9221 12.271 4.5789C11.8416 4.23569 11.3315 3.96368 10.7702 3.77849C10.2088 3.5933 9.60728 3.49858 8.99999 3.49976ZM8.99999 9.59842C8.40477 9.59842 7.82295 9.45735 7.32803 9.19304C6.83323 8.92883 6.44746 8.55318 6.2197 8.11366C5.99192 7.67414 5.93233 7.19057 6.04844 6.72394C6.16456 6.25739 6.45117 5.82877 6.872 5.4924C7.29287 5.15606 7.82915 4.92698 8.41288 4.83418C8.99673 4.74137 9.60176 4.789 10.1517 4.97105C10.7016 5.15309 11.1716 5.46141 11.5022 5.85688C11.8329 6.25244 12.0094 6.71745 12.0094 7.19318C12.0094 7.83107 11.6923 8.44292 11.128 8.89397C10.5636 9.34502 9.7981 9.59842 8.99999 9.59842ZM14.8948 3.34661C14.8948 3.52479 14.8288 3.69896 14.7049 3.84709C14.581 3.99523 14.405 4.1107 14.199 4.17888C13.9931 4.24706 13.7664 4.2649 13.5478 4.23015C13.3291 4.19538 13.1284 4.10959 12.9707 3.98361C12.8131 3.85762 12.7057 3.69711 12.6622 3.52237C12.6187 3.34761 12.641 3.16649 12.7263 3.00188C12.8117 2.83728 12.9562 2.69659 13.1415 2.5976C13.3269 2.49861 13.5447 2.44578 13.7677 2.44578C14.0666 2.44578 14.3533 2.54069 14.5647 2.70963C14.7761 2.87857 14.8948 3.1077 14.8948 3.34661ZM17.9493 4.24745C17.9821 3.12756 17.4594 2.04274 16.4953 1.22964C15.4834 0.449239 14.1254 0.0215841 12.7195 0.0405377C11.2542 -0.0135126 6.74577 -0.0135126 5.28053 0.0405377C3.87976 0.0162962 2.52336 0.433762 1.5047 1.20262C0.540609 2.01572 0.0179437 3.10053 0.0507201 4.22043C-0.0169067 5.39151 -0.0169067 8.99486 0.0507201 10.1659C0.0179437 11.2859 0.540609 12.3707 1.5047 13.1838C2.52336 13.9526 3.87976 14.3701 5.28053 14.3458C6.76831 14.4179 11.2317 14.4179 12.7195 14.3458C14.1207 14.3721 15.478 13.9543 16.4953 13.1838C17.4594 12.3707 17.9821 11.2859 17.9493 10.1659C18.0169 8.99486 18.0169 5.39151 17.9493 4.22043V4.24745ZM16.0332 11.4541C15.8801 11.764 15.6492 12.0454 15.3544 12.2809C15.0597 12.5165 14.7077 12.7011 14.32 12.8234C12.5702 13.1062 10.7815 13.2031 8.99999 13.1117C7.22231 13.2032 5.43721 13.1063 3.6913 12.8234C3.30365 12.7011 2.95155 12.5165 2.65686 12.2809C2.36215 12.0454 2.13112 11.764 1.97809 11.4541C1.5047 10.4993 1.60614 8.24716 1.60614 7.20219C1.60614 6.15722 1.5047 3.89613 1.97809 2.95025C2.12681 2.63736 2.35619 2.35296 2.65133 2.11551C2.94648 1.87807 3.3008 1.69287 3.6913 1.57196C5.43721 1.28908 7.22231 1.19215 8.99999 1.28369C10.7815 1.1923 12.5702 1.28923 14.32 1.57196C14.7077 1.69428 15.0597 1.87892 15.3544 2.11447C15.6492 2.35 15.8801 2.63141 16.0332 2.94124C16.5066 3.89613 16.3939 6.14821 16.3939 7.19318C16.3939 8.23816 16.5066 10.4993 16.0332 11.4451V11.4541Z" fill="white"/>
</svg>
