<svg width="14" height="12" viewBox="0 0 14 12" fill="none" xmlns="http://www.w3.org/2000/svg">
<path d="M3.25899 3.81506H0.448463C0.323727 3.81506 0.222656 3.90071 0.222656 4.00633V11.6544C0.222656 11.76 0.323727 11.8456 0.448463 11.8456H3.25899C3.38372 11.8456 3.48479 11.76 3.48479 11.6544V4.00633C3.48479 3.90071 3.38372 3.81506 3.25899 3.81506Z" fill="white"/>
<path d="M1.85459 0.0134277C0.831961 0.0134277 0 0.717377 0 1.58264C0 2.44829 0.831961 3.15251 1.85459 3.15251C2.87641 3.15251 3.7077 2.44826 3.7077 1.58264C3.70774 0.717377 2.87641 0.0134277 1.85459 0.0134277Z" fill="white"/>
<path d="M10.4075 3.62497C9.27867 3.62497 8.44422 4.03601 7.9381 4.50305V4.00632C7.9381 3.9007 7.83703 3.81505 7.7123 3.81505H5.02073C4.89599 3.81505 4.79492 3.9007 4.79492 4.00632V11.6544C4.79492 11.76 4.89599 11.8456 5.02073 11.8456H7.82511C7.94984 11.8456 8.05092 11.76 8.05092 11.6544V7.87036C8.05092 6.59524 8.45981 6.09847 9.50917 6.09847C10.652 6.09847 10.7428 6.89484 10.7428 7.93596V11.6544C10.7428 11.7601 10.8439 11.8457 10.9687 11.8457H13.7741C13.8988 11.8457 13.9999 11.7601 13.9999 11.6544V7.45932C13.9999 5.56326 13.5731 3.62497 10.4075 3.62497Z" fill="white"/>
</svg>
