<svg width="17" height="12" viewBox="0 0 17 12" fill="none" xmlns="http://www.w3.org/2000/svg">
<path fill-rule="evenodd" clip-rule="evenodd" d="M5.34047 11.8819C11.7482 11.8819 15.253 7.30995 15.253 3.34568C15.253 3.21553 15.253 3.08637 15.2428 2.95769C15.9246 2.53362 16.513 2.00709 16.9808 1.40463C16.3457 1.64737 15.6708 1.80656 14.9805 1.87675C15.7073 1.50167 16.2515 0.912401 16.5122 0.217081C15.8278 0.566568 15.0798 0.813221 14.2996 0.945564C12.9801 -0.262292 10.7735 -0.320813 9.37002 0.815387C8.46579 1.54799 8.08118 2.6403 8.36221 3.68218C5.56122 3.56081 2.95127 2.42171 1.18187 0.547781C0.25726 1.91867 0.730176 3.67178 2.261 4.55208C1.70657 4.53819 1.16404 4.40964 0.679233 4.17714V4.21522C0.680082 5.64315 1.84921 6.87267 3.47428 7.15562C2.96146 7.27626 2.42316 7.29375 1.90185 7.20675C2.35779 8.42922 3.66616 9.26654 5.15623 9.29066C3.92257 10.1256 2.39854 10.579 0.829514 10.5776C0.552726 10.5768 0.275938 10.5629 0 10.5344C1.59365 11.4147 3.44711 11.8819 5.34047 11.8797" fill="#003554"/>
</svg>
